<svg id="SvgjsSvg1001" width="288" height="288" xmlns="http://www.w3.org/2000/svg" version="1.1" xmlns:xlink="http://www.w3.org/1999/xlink" xmlns:svgjs="http://svgjs.com/svgjs"><defs id="SvgjsDefs1002"></defs><g id="SvgjsG1008" transform="matrix(0.9167,0,0,0.9167,11.995200000000011,11.995200357484833)"><svg xmlns="http://www.w3.org/2000/svg" width="288" height="288" version="1.0" viewBox="0 0 384 383"><path d="M0 1915 l0 -1915 1920 0 1920 0 0 1915 0 1915 -1920 0 -1920 0 0-1915z m1620 860 l84 -85 -251 -252 c-390 -392 -564 -571 -561 -580 2 -4 182
-187 401 -407 218 -220 397 -406 397 -413 0 -16 -150 -168 -166 -168 -10 0
-908 905 -926 933 -12 18 -9 96 3 120 11 22 919 937 929 937 3 0 43 -38 90
-85z m1156 -298 c593 -599 554 -557 553 -608 0 -24 -3 -52 -7 -61 -7 -18 -920
-938 -931 -938 -4 0 -45 38 -91 85 l-85 85 410 410 410 410 -142 142 c-408
410 -673 681 -673 686 0 8 163 172 171 172 3 0 176 -172 385 -383z m-1064
-467 c10 0 33 -14 53 -31 84 -74 62 -211 -42 -254 -49 -21 -81 -18 -128 8 -65
36 -92 116 -65 194 18 49 98 98 145 88 11 -3 28 -5 37 -5z m578 0 c20 -5 51
-26 70 -45 32 -33 35 -41 35 -98 0 -74 -26 -117 -87 -142 -51 -20 -70 -19
-124 6 -121 57 -107 239 21 278 40 12 45 12 85 1z" transform="matrix(.1 0 0 -.1 0 383)" fill="#6666ff" class="color000 svgShape"></path></svg></g></svg>